<svg width="68" height="68" xmlns="http://www.w3.org/2000/svg" xmlns:xlink="http://www.w3.org/1999/xlink" overflow="hidden"><g transform="translate(-483 -274)"><g><g><g><path d="M38.1219 26.6131C36.8845 27.4688 35.7332 28.4428 34.6844 29.5212 38.9332 36.5674 36.6655 45.7237 29.6194 49.9725 22.5733 54.2213 13.417 51.9537 9.16816 44.9076 4.91933 37.8615 7.18699 28.705 14.2331 24.4563 18.073 22.1408 22.7515 21.678 26.9706 23.1963 27.9894 21.9465 29.1421 20.8122 30.4081 19.8137 20.8444 15.1701 9.32704 19.1586 4.68337 28.7222 0.0396865 38.286 4.02817 49.8033 13.5919 54.447 23.1556 59.0907 34.673 55.1022 39.3166 45.5385 40.5897 42.9166 41.2508 40.0397 41.25 37.125 41.25 28.875 38.1219 26.6131 38.1219 26.6131Z" transform="matrix(1.01515 0 0 1 483 275)"/><path d="M51.4663 19.3738 48.1731 22.9281C56.0091 25.244 60.4841 33.4737 58.1682 41.3097 55.8524 49.1457 47.6226 53.6207 39.7867 51.3048 39.5274 51.2282 39.2703 51.1444 39.0156 51.0538 37.9935 52.2984 36.8411 53.43 35.5781 54.4294 45.256 58.8302 56.669 54.5523 61.0699 44.8744 65.4706 35.1965 61.1927 23.7835 51.5149 19.3827 51.5032 19.3774 51.4916 19.3722 51.48 19.3669Z" transform="matrix(1.01515 0 0 1 483 275)"/><path d="M39.8269 22.9281 36.5337 19.3738C26.7336 23.495 22.1299 34.7806 26.2511 44.5807 26.7002 45.6486 27.2447 46.6738 27.8781 47.6438 29.195 46.9026 30.361 45.9208 31.3156 44.7494 29.8833 42.4676 29.1453 39.8187 29.1912 37.125 29.1827 30.5534 33.5178 24.7668 39.8269 22.9281Z" transform="matrix(1.01515 0 0 1 483 275)"/><path d="M38.5 9.625 35.0625 13.75 44 23.375 52.9375 13.75 49.5 9.625 38.5 9.625Z" transform="matrix(1.01515 0 0 1 483 275)"/></g></g></g></g></svg>