<svg width="36" height="37" xmlns="http://www.w3.org/2000/svg" xmlns:xlink="http://www.w3.org/1999/xlink" overflow="hidden"><g transform="translate(-778 -169)"><g><g><g><path d="M15.6771 10.2083C15.6771 9.1875 16.4792 8.38542 17.5 8.38542 18.5208 8.38542 19.3229 9.1875 19.3229 10.2083 19.3229 10.2448 19.3229 10.2813 19.3229 10.3177 18.7396 10.2448 18.1198 10.2083 17.5 10.2083 16.8802 10.2083 16.2969 10.2448 15.6771 10.3177 15.6771 10.2813 15.6771 10.2448 15.6771 10.2083ZM20.7448 10.6094C20.7448 10.4635 20.7812 10.3542 20.7812 10.2083 20.7812 8.38542 19.3229 6.92708 17.5 6.92708 15.6771 6.92708 14.2188 8.38542 14.2188 10.2083 14.2188 10.3542 14.2188 10.4635 14.2552 10.6094 8.16667 12.0677 3.64583 17.5365 3.64583 24.0625L31.3542 24.0625C31.3542 17.5365 26.8333 12.0677 20.7448 10.6094Z" transform="matrix(1.02857 0 0 1 778 170)"/><path d="M2.91667 25.5208 2.91667 26.25C2.91667 27.0521 3.57292 27.7083 4.375 27.7083L30.625 27.7083C31.4271 27.7083 32.0833 27.0521 32.0833 26.25L32.0833 25.5208 2.91667 25.5208Z" transform="matrix(1.02857 0 0 1 778 170)"/></g></g></g></g></svg>